<svg xmlns="http://www.w3.org/2000/svg" xmlns:xlink="http://www.w3.org/1999/xlink" width="1000" zoomAndPan="magnify" viewBox="0 0 375 374.999991" height="1000" preserveAspectRatio="xMidYMid meet" version="1.0"><defs><g/><clipPath id="902c4f7a7e"><path d="M 43 136 L 135 136 L 135 238.722656 L 43 238.722656 Z M 43 136 " clip-rule="nonzero"/></clipPath><clipPath id="436792f576"><path d="M 42 135.972656 L 136 135.972656 L 136 238.722656 L 42 238.722656 Z M 42 135.972656 " clip-rule="nonzero"/></clipPath></defs><g clip-path="url(#902c4f7a7e)"><path fill="#ffffff" d="M 134.347656 165.648438 L 134.347656 209.019531 C 134.347656 211.832031 132.832031 214.453125 130.398438 215.871094 L 92.820312 237.566406 C 91.621094 238.265625 90.257812 238.625 88.863281 238.625 C 87.492188 238.625 86.125 238.265625 84.921875 237.566406 L 72.375 230.144531 C 70.503906 229.101562 71.417969 228.726562 72.035156 228.511719 C 74.535156 227.644531 75.042969 227.445312 77.710938 225.933594 C 77.988281 225.773438 78.355469 225.835938 78.640625 226 L 88.28125 231.722656 C 88.628906 231.921875 89.125 231.921875 89.445312 231.722656 L 127.027344 210.035156 C 127.375 209.832031 127.601562 209.433594 127.601562 209.019531 L 127.601562 165.648438 C 127.601562 165.222656 127.375 164.828125 127.015625 164.613281 L 89.453125 142.941406 C 89.105469 142.738281 88.644531 142.738281 88.292969 142.941406 L 50.738281 164.617188 C 50.371094 164.828125 50.140625 165.238281 50.140625 165.648438 L 50.140625 209.019531 C 50.140625 209.433594 50.371094 209.824219 50.734375 210.019531 L 61.03125 215.972656 C 66.613281 218.761719 70.035156 215.472656 70.035156 212.167969 L 70.035156 169.347656 C 70.035156 168.742188 70.523438 168.265625 71.128906 168.265625 L 75.894531 168.265625 C 76.488281 168.265625 76.984375 168.742188 76.984375 169.347656 L 76.984375 212.167969 C 76.984375 219.621094 72.921875 223.898438 65.855469 223.898438 C 63.683594 223.898438 61.972656 223.898438 57.195312 221.546875 L 47.34375 215.871094 C 44.910156 214.46875 43.402344 211.832031 43.402344 209.019531 L 43.402344 165.648438 C 43.402344 162.832031 44.910156 160.199219 47.34375 158.796875 L 84.921875 137.082031 C 87.300781 135.738281 90.464844 135.738281 92.820312 137.082031 L 130.398438 158.796875 C 132.832031 160.207031 134.347656 162.832031 134.347656 165.648438 Z M 101.953125 204.882812 C 90.738281 204.882812 88.273438 202.0625 87.445312 196.484375 C 87.351562 195.890625 86.839844 195.449219 86.230469 195.449219 L 80.75 195.449219 C 80.070312 195.449219 79.527344 195.988281 79.527344 196.671875 C 79.527344 203.808594 83.410156 212.320312 101.953125 212.320312 C 115.378906 212.320312 123.078125 207.035156 123.078125 197.800781 C 123.078125 188.644531 116.894531 186.210938 103.871094 184.488281 C 90.710938 182.746094 89.375 181.847656 89.375 178.765625 C 89.375 176.226562 90.507812 172.828125 100.253906 172.828125 C 108.960938 172.828125 112.167969 174.707031 113.488281 180.570312 C 113.605469 181.125 114.105469 181.527344 114.675781 181.527344 L 120.175781 181.527344 C 120.519531 181.527344 120.84375 181.378906 121.074219 181.136719 C 121.304688 180.878906 121.429688 180.546875 121.398438 180.195312 C 120.546875 170.085938 113.828125 165.375 100.253906 165.375 C 88.171875 165.375 80.964844 170.476562 80.964844 179.023438 C 80.964844 188.296875 88.136719 190.863281 99.730469 192.007812 C 113.605469 193.367188 114.679688 195.394531 114.679688 198.125 C 114.679688 202.863281 110.882812 204.882812 101.953125 204.882812 Z M 101.953125 204.882812 " fill-opacity="1" fill-rule="nonzero"/></g><g clip-path="url(#436792f576)"><path stroke-linecap="butt" transform="matrix(0.200684, 0, 0, 0.200684, 37.500002, 135.973774)" fill="none" stroke-linejoin="miter" d="M 482.58883 147.867918 L 482.58883 363.984721 C 482.58883 377.99932 475.036518 391.060148 462.909996 398.125842 L 275.659376 506.232905 C 269.683706 509.717091 262.890518 511.507845 255.941613 511.507845 C 249.109495 511.507845 242.296843 509.717091 236.301709 506.232905 L 173.781023 469.249935 C 164.457422 464.052854 169.012167 462.184241 172.087593 461.113681 C 184.545014 456.792513 187.075428 455.799812 200.369833 448.266965 C 201.751828 447.468911 203.581512 447.780347 205.002437 448.597865 L 253.041369 477.113682 C 254.773729 478.106383 257.245749 478.106383 258.841856 477.113682 L 446.111942 369.045548 C 447.844302 368.033383 448.973256 366.047981 448.973256 363.984721 L 448.973256 147.867918 C 448.973256 145.746263 447.844302 143.780327 446.053547 142.709767 L 258.880786 34.719492 C 257.148425 33.707327 254.851588 33.707327 253.099763 34.719492 L 65.965931 142.729232 C 64.136247 143.780327 62.987829 145.824122 62.987829 147.867918 L 62.987829 363.984721 C 62.987829 366.047981 64.136247 367.994453 65.946466 368.967689 L 117.255472 398.631925 C 145.070559 412.529736 162.121655 396.140441 162.121655 379.673286 L 162.121655 166.301009 C 162.121655 163.283977 164.554745 160.909281 167.571777 160.909281 L 191.318737 160.909281 C 194.277375 160.909281 196.749395 163.283977 196.749395 166.301009 L 196.749395 379.673286 C 196.749395 416.811975 176.506084 438.125845 141.294403 438.125845 C 130.472018 438.125845 121.94647 438.125845 98.141116 426.408083 L 49.051088 398.125842 C 36.924567 391.138007 29.411184 377.99932 29.411184 363.984721 L 29.411184 147.867918 C 29.411184 133.833854 36.924567 120.714632 49.051088 113.726797 L 236.301709 5.52241 C 248.155724 -1.173454 263.922148 -1.173454 275.659376 5.52241 L 462.909996 113.726797 C 475.036518 120.753561 482.58883 133.833854 482.58883 147.867918 Z M 321.167894 343.371581 C 265.284679 343.371581 253.00244 329.318052 248.875919 301.522429 C 248.408765 298.563792 245.858887 296.364278 242.82239 296.364278 L 215.513386 296.364278 C 212.126525 296.364278 209.420928 299.05041 209.420928 302.456736 C 209.420928 338.018782 228.768861 380.43241 321.167894 380.43241 C 388.068142 380.43241 426.433108 354.096642 426.433108 308.082041 C 426.433108 262.456733 395.620454 250.330212 330.725073 241.74627 C 265.148426 233.065004 258.491491 228.588118 258.491491 213.230453 C 258.491491 200.578384 264.13626 183.644076 312.700741 183.644076 C 356.087605 183.644076 372.068141 193.006607 378.647217 222.223154 C 379.231159 224.987145 381.722643 226.992011 384.564492 226.992011 L 411.97082 226.992011 C 413.683716 226.992011 415.299288 226.252352 416.447706 225.045539 C 417.596125 223.760867 418.218996 222.106366 418.063278 220.354541 C 413.819969 169.979842 380.340648 146.505388 312.700741 146.505388 C 252.496357 146.505388 216.583946 171.926314 216.583946 214.515124 C 216.583946 260.724373 252.321174 273.512695 310.092468 279.215859 C 379.231159 285.989582 384.583957 296.091772 384.583957 309.697613 C 384.583957 333.30832 365.664248 343.371581 321.167894 343.371581 Z M 321.167894 343.371581 " stroke="#ffffff" stroke-width="1" stroke-opacity="1" stroke-miterlimit="4"/></g><g fill="#ffffff" fill-opacity="1"><g transform="translate(154.023541, 207.755558)"><g><path d="M 23.386719 -34.015625 C 23.386719 -38.890625 20.742188 -41.484375 15.917969 -41.484375 L 10.113281 -41.484375 C 5.238281 -41.484375 2.59375 -38.890625 2.59375 -34.015625 L 2.59375 -7.46875 C 2.59375 -2.59375 5.238281 0 10.113281 0 L 15.917969 0 C 20.742188 0 23.386719 -2.59375 23.386719 -7.46875 L 23.386719 -13.066406 C 23.386719 -13.585938 23.074219 -13.898438 22.554688 -13.898438 L 17.371094 -13.898438 C 16.800781 -13.898438 16.542969 -13.585938 16.542969 -13.066406 L 16.542969 -8.917969 C 16.542969 -7.519531 15.816406 -6.84375 14.46875 -6.84375 L 11.769531 -6.84375 C 10.421875 -6.84375 9.695312 -7.519531 9.695312 -8.917969 L 9.695312 -32.566406 C 9.695312 -33.914062 10.371094 -34.636719 11.769531 -34.636719 L 14.46875 -34.636719 C 15.816406 -34.636719 16.542969 -33.914062 16.542969 -32.566406 L 16.542969 -28.417969 C 16.542969 -27.898438 16.800781 -27.585938 17.371094 -27.585938 L 22.554688 -27.585938 C 23.074219 -27.585938 23.386719 -27.898438 23.386719 -28.417969 Z M 23.386719 -34.015625 "/></g></g></g><g fill="#ffffff" fill-opacity="1"><g transform="translate(179.999781, 207.755558)"><g><path d="M 27.066406 0 C 27.691406 0 27.949219 -0.3125 27.792969 -0.882812 L 19.1875 -35.570312 C 19.082031 -36.089844 18.769531 -36.296875 18.304688 -36.296875 L 11.097656 -36.296875 C 10.628906 -36.296875 10.320312 -36.089844 10.214844 -35.570312 L 1.609375 -0.882812 C 1.453125 -0.3125 1.710938 0 2.28125 0 L 7.363281 0 C 7.828125 0 8.089844 -0.257812 8.191406 -0.726562 L 9.800781 -7.257812 L 19.550781 -7.257812 L 21.207031 -0.726562 C 21.3125 -0.257812 21.570312 0 22.039062 0 Z M 17.941406 -13.273438 L 11.40625 -13.273438 L 14.675781 -27.378906 Z M 17.941406 -13.273438 "/></g></g></g><g fill="#ffffff" fill-opacity="1"><g transform="translate(209.398036, 207.755558)"><g><path d="M 16.28125 -21.46875 L 9.644531 -21.46875 L 9.644531 -35.46875 C 9.644531 -35.988281 9.332031 -36.296875 8.816406 -36.296875 L 3.472656 -36.296875 C 2.851562 -36.296875 2.59375 -35.988281 2.59375 -35.46875 L 2.59375 -0.828125 C 2.59375 -0.3125 2.851562 0 3.472656 0 L 8.816406 0 C 9.332031 0 9.644531 -0.3125 9.644531 -0.828125 L 9.644531 -14.621094 L 16.28125 -14.621094 L 16.28125 -0.828125 C 16.28125 -0.3125 16.59375 0 17.113281 0 L 22.453125 0 C 23.074219 0 23.335938 -0.3125 23.335938 -0.828125 L 23.335938 -35.46875 C 23.335938 -35.988281 23.074219 -36.296875 22.453125 -36.296875 L 17.113281 -36.296875 C 16.59375 -36.296875 16.28125 -35.988281 16.28125 -35.46875 Z M 16.28125 -21.46875 "/></g></g></g><g fill="#ffffff" fill-opacity="1"><g transform="translate(235.322421, 207.755558)"><g><path d="M 20.636719 -36.296875 C 20.015625 -36.296875 19.652344 -35.988281 19.445312 -35.46875 L 13.636719 -22.140625 L 7.828125 -35.46875 C 7.621094 -35.988281 7.257812 -36.296875 6.636719 -36.296875 L 1.453125 -36.296875 C 0.675781 -36.296875 0.3125 -35.78125 0.621094 -35.105469 L 10.113281 -13.585938 L 10.113281 -1.035156 C 10.113281 -0.363281 10.472656 0 11.148438 0 L 16.125 0 C 16.800781 0 17.164062 -0.363281 17.164062 -1.035156 L 17.164062 -13.585938 L 26.652344 -35.105469 C 26.964844 -35.78125 26.601562 -36.296875 25.824219 -36.296875 Z M 20.636719 -36.296875 "/></g></g></g><g fill="#ffffff" fill-opacity="1"><g transform="translate(262.594877, 207.755558)"><g><path d="M 27.066406 0 C 27.691406 0 27.949219 -0.3125 27.792969 -0.882812 L 19.1875 -35.570312 C 19.082031 -36.089844 18.769531 -36.296875 18.304688 -36.296875 L 11.097656 -36.296875 C 10.628906 -36.296875 10.320312 -36.089844 10.214844 -35.570312 L 1.609375 -0.882812 C 1.453125 -0.3125 1.710938 0 2.28125 0 L 7.363281 0 C 7.828125 0 8.089844 -0.257812 8.191406 -0.726562 L 9.800781 -7.257812 L 19.550781 -7.257812 L 21.207031 -0.726562 C 21.3125 -0.257812 21.570312 0 22.039062 0 Z M 17.941406 -13.273438 L 11.40625 -13.273438 L 14.675781 -27.378906 Z M 17.941406 -13.273438 "/></g></g></g></svg>